<svg xmlns="http://www.w3.org/2000/svg" width="53" height="53" viewBox="0 0 53 53"><defs><style>.a{fill:#fff;opacity:0.75;}.b{fill:#76ba15;}</style></defs><path class="a" d="M25.709,0h0A25.759,25.759,0,0,1,51.418,25.709h0A25.759,25.759,0,0,1,25.709,51.418h0A25.759,25.759,0,0,1,0,25.709H0A25.759,25.759,0,0,1,25.709,0Z" transform="translate(0.791 0.791)"/><path class="b" d="M25.53,52.03a26.5,26.5,0,1,1,26.5-26.5A26.5,26.5,0,0,1,25.53,52.03Zm0-51.418A24.918,24.918,0,1,0,50.448,25.53,24.915,24.915,0,0,0,25.53.612Z" transform="translate(0.97 0.97)"/><path class="b" d="M238.738-992.977a8.6,8.6,0,0,1-1.9-.553,2.809,2.809,0,0,1-.712-.317,8.039,8.039,0,0,1-1.82-1.424c-1.582-1.582-1.582-3.164-.079-4.667a32.135,32.135,0,0,1,3.956-3.4,2.725,2.725,0,0,1,3.8.079l1.661,1.661.553.554.238-.238a31.835,31.835,0,0,0,7.91-12.182l.158-.475-.4-.158-.316-.158a18.636,18.636,0,0,1-2.215-.95,3.262,3.262,0,0,1-.87-.553,2.446,2.446,0,0,1-.791-2.768c.4-1.582,1.424-4.747,1.424-4.826l.475-.949a3.162,3.162,0,0,1,1.265-1.028c1.424-.633,3.085.079,4.271.949a9.1,9.1,0,0,1,2.927,3.323l.238.474a10.611,10.611,0,0,1,.553,2.136c.079.238-.158.475-.4.554s-.475-.158-.554-.4a8.33,8.33,0,0,0-.474-1.9,7.18,7.18,0,0,0-1.424-2.136c-.791,2.927-1.582,5.7-2.532,8.384l-.316.87a33.239,33.239,0,0,1-8.148,12.577l-.554.634c-1.028,1.028-2.057,2.057-3.322,3.164-1.108,1.029-2.136,1.82-3.244,2.69.238.079.475.079.791.157a8.958,8.958,0,0,0,5.854-1.345,20.992,20.992,0,0,0,2.215-1.424c.317-.238.712-.554,1.029-.791.949-.791,1.82-1.661,2.689-2.531a30,30,0,0,0,6.724-12.1,24.521,24.521,0,0,0,.712-3.48.524.524,0,0,1,.554-.475.512.512,0,0,1,.474.4,19.966,19.966,0,0,1-.791,3.639,34.044,34.044,0,0,1-2.532,6.328c-.316.633-.633,1.187-.949,1.741a27.649,27.649,0,0,1-6.17,7.04,10.418,10.418,0,0,1-1.108.87,22.72,22.72,0,0,1-2.293,1.5A10.384,10.384,0,0,1,240-992.9,6.8,6.8,0,0,1,238.738-992.977Zm.079-9.413a30.115,30.115,0,0,0-3.876,3.244c-1.107,1.107-1.107,2.057.079,3.243a5.551,5.551,0,0,0,1.5,1.187c.158.079.317.079.475.237a43.032,43.032,0,0,0,3.639-3.006c1.107-.949,2.056-1.9,2.927-2.768,0,0-1.661-1.661-2.136-2.056a2.306,2.306,0,0,0-1.367-.6A2.1,2.1,0,0,0,238.817-1002.39Zm12.815-21.992a2.25,2.25,0,0,0-.791.712,3.22,3.22,0,0,0-.4.712c0,.158-1.029,3.164-1.346,4.667a1.586,1.586,0,0,0,.4,1.82,5.053,5.053,0,0,0,1.107.633c.634.238,1.266.554,1.9.791l.316.079c.87-2.611,1.741-5.458,2.452-8.306a5.688,5.688,0,0,0-2.867-1.274A1.8,1.8,0,0,0,251.632-1024.382ZM235.1-1007.374a9.876,9.876,0,0,1-6.961-2.849,9.938,9.938,0,0,1-1.029-13.21,9.932,9.932,0,0,1,13.922-1.9.5.5,0,0,1,.079.712.5.5,0,0,1-.712.079,9.263,9.263,0,0,0-11.945.869,8.906,8.906,0,0,0,.158,12.657,9,9,0,0,0,10.442,1.5,1.013,1.013,0,0,1,.949,0,8.092,8.092,0,0,0,2.372.634,9.341,9.341,0,0,1-.869-1.5,1.139,1.139,0,0,1,.158-1.108,8.874,8.874,0,0,0,.238-11.549.5.5,0,0,1,.079-.712.5.5,0,0,1,.712.078,9.944,9.944,0,0,1-.238,12.894,10.929,10.929,0,0,0,1.029,1.582.6.6,0,0,1,.158.4.818.818,0,0,1-.712.95,5.907,5.907,0,0,1-3.244-.712,8.933,8.933,0,0,1-4.509,1.187Zm3.085-9.968a1.84,1.84,0,0,1,1.82-1.82,1.84,1.84,0,0,1,1.819,1.82,1.84,1.84,0,0,1-1.819,1.82A1.84,1.84,0,0,1,238.184-1017.341Zm.949,0a.793.793,0,0,0,.791.791.793.793,0,0,0,.791-.791.793.793,0,0,0-.791-.791A.793.793,0,0,0,239.134-1017.341Zm-5.854,0a1.84,1.84,0,0,1,1.819-1.82,1.84,1.84,0,0,1,1.82,1.82,1.84,1.84,0,0,1-1.82,1.82A1.84,1.84,0,0,1,233.28-1017.341Zm.949,0a.748.748,0,0,0,.791.791.793.793,0,0,0,.791-.791.793.793,0,0,0-.791-.791A.748.748,0,0,0,234.229-1017.341Zm-5.854,0a1.84,1.84,0,0,1,1.82-1.82,1.79,1.79,0,0,1,1.819,1.82,1.79,1.79,0,0,1-1.819,1.82A1.84,1.84,0,0,1,228.375-1017.341Zm.95,0a.748.748,0,0,0,.791.791.793.793,0,0,0,.791-.791.793.793,0,0,0-.791-.791A.793.793,0,0,0,229.325-1017.341Z" transform="translate(-216.142 1038.704)"/></svg>