<svg xmlns="http://www.w3.org/2000/svg" width="221.389" height="33.884" viewBox="0 0 221.389 33.884"><defs><style>.a{fill:#606060;}.b{fill:#76ba15;fill-rule:evenodd;}.c{fill:#8e8e8f;}</style></defs><g transform="translate(-298.005 -26.188)"><path class="a" d="M5.328-11.133l-.516.672a16.1,16.1,0,0,0-2.906-2.133l.492-.672A12.427,12.427,0,0,1,5.328-11.133Zm8.625-.914H5.844v-.836h8.109ZM4.766-7.187,4.3-6.445a14.287,14.287,0,0,0-3.172-2.32l.484-.672A13.328,13.328,0,0,1,4.766-7.187ZM15.055-3.266a12.058,12.058,0,0,1-.238,2.578,1.766,1.766,0,0,1-.6,1.047,2.5,2.5,0,0,1-1.344.266,3.99,3.99,0,0,1-1.809-.25,1.18,1.18,0,0,1-.379-1.047V-7.789H8.7q.062,4.1-1.027,5.93A6.345,6.345,0,0,1,4.492.813L3.922.125A6.635,6.635,0,0,0,5.934-1.117,5.03,5.03,0,0,0,7.422-3.332a15.232,15.232,0,0,0,.469-4.457H5.172v-.8h9.852v.8H11.469V-.625q0,.453,1.188.453A2.452,2.452,0,0,0,13.664-.3a.7.7,0,0,0,.3-.285,5.3,5.3,0,0,0,.191-1,15.046,15.046,0,0,0,.117-2.031ZM5.172-4.656A22,22,0,0,1,1.727.75L1.117.078a19.725,19.725,0,0,0,3.344-5.2Zm27.42-.578-.562.578a9.369,9.369,0,0,1-2.492-2.531H26.8A10.635,10.635,0,0,1,24.225-4.7l-.609-.516a10.865,10.865,0,0,0,2.2-1.969H24.163v-.766H26.4a6.258,6.258,0,0,0,.625-1.3h-2.4V-10h2.688a8.2,8.2,0,0,0,.383-1.3H24.319v-.766h3.555q.164-.641.258-1.2l.781.164q-.047.32-.2,1.039h3.492v.766H28.53a12.282,12.282,0,0,1-.383,1.3h3.727v.75H27.889a13.128,13.128,0,0,1-.594,1.3h5.133v.766H30.545A5.982,5.982,0,0,0,32.592-5.234ZM23.983-.9A44.785,44.785,0,0,1,18.9.461l-.18-.75a20.9,20.9,0,0,0,2.227-.523V-3.891H19.006V-4.7h1.938V-7.07q-1.047.188-1.891.258l-.25-.7A14.9,14.9,0,0,0,20.67-11.82H18.655v-.82h5.156v.82h-2.32A18.766,18.766,0,0,1,19.842-7.7a25.787,25.787,0,0,0,2.781-.484,12.028,12.028,0,0,0-.672-1.437l.719-.3a16.475,16.475,0,0,1,1.172,2.9l-.672.367q-.133-.469-.258-.8-.7.148-1.156.2V-4.7h1.734v.813H21.756v2.852q.828-.211,2.227-.672ZM32.03-3.1H28.639V.813h-.8V-3.1H24.53v-.789h3.313V-5.055q-1.32.164-1.664.172l-.258-.75a20.588,20.588,0,0,0,3.758-.625l.438.672q-1.1.289-1.477.367v1.328H32.03ZM32.7-.062l-.57.578a16.563,16.563,0,0,0-2.391-2.359l.563-.508A16.68,16.68,0,0,1,32.7-.062Zm-5.547-1.8a13.2,13.2,0,0,1-2.7,2.438l-.562-.594A13.46,13.46,0,0,0,26.5-2.32ZM50.1-8.9H48.958v2.273H45.309V-5.3h3.969v.781H45.309V-3.2h4.516v.789H45.309V-.828h-.8V-2.414H40.544V-3.2h3.969V-4.516H41.153V-5.3h3.359V-6.625H41.458v-.8h3.055V-8.9H40.559v-.812h3.953V-11.1H41.473v-.789h3.039v-1.2h.8v1.2h3.648v2.18H50.1Zm-1.953-.812V-11.07H45.309v1.359Zm0,2.289V-8.9H45.309v1.477Zm2.078,7.2-.2.852q-1.445.039-2.75.039A38.326,38.326,0,0,1,43.259.52a11.155,11.155,0,0,1-2.367-.555,5.342,5.342,0,0,1-2.074-1.34A13.615,13.615,0,0,1,36.653.867l-.57-.656A11.134,11.134,0,0,0,38.208-2a10.618,10.618,0,0,1-1.5-3.148l.75-.3a7.692,7.692,0,0,0,1.2,2.672,10.4,10.4,0,0,0,.945-4.1H36.638v-.75a41.364,41.364,0,0,0,2.961-4.3H36.317v-.8H40.5v.8a46.522,46.522,0,0,1-2.8,4.242h2.773a13.543,13.543,0,0,1-1.234,5.6A5.74,5.74,0,0,0,40.938-.883a6.88,6.88,0,0,0,2.027.574,41.68,41.68,0,0,0,4.25.137Q48.794-.172,50.223-.227ZM59.55-10.734H53.886v-.836h2.5a6.217,6.217,0,0,0-.641-1.406l.734-.336a7.723,7.723,0,0,1,.781,1.742H59.55Zm8.2,3.359H66.191q-1.148,0-1.148-1.1v-3.445h-2.82a7.811,7.811,0,0,1-.59,3.285,4.27,4.27,0,0,1-1.52,1.691l-.625-.578a3.958,3.958,0,0,0,1.465-1.652,8.46,8.46,0,0,0,.473-3.543h4.414v4a.473.473,0,0,0,.531.539h1.375ZM59.12-8.414H54.206v-.8H59.12ZM59.1-6.062H54.191v-.8H59.1ZM67.808.18l-.477.688a12.424,12.424,0,0,1-3.75-1.844A12.646,12.646,0,0,1,59.745.781l-.5-.687a11.526,11.526,0,0,0,3.633-1.633,8.793,8.793,0,0,1-2.414-4.078h-.547V-6.43h6.7v.813a10.641,10.641,0,0,1-2.4,4.094A13.16,13.16,0,0,0,67.808.18Zm-2.094-5.8h-4.4a7.964,7.964,0,0,0,2.25,3.555A8.094,8.094,0,0,0,65.714-5.617ZM58.878.477H58.05V-.4h-2.9V.781h-.828V-4.547h4.555Zm-.828-1.7V-3.7h-2.9v2.477ZM85.291-7.484H83.439a.91.91,0,0,1-.719-.336,1.082,1.082,0,0,1-.281-.75v-3.406H79.556v.531A8.172,8.172,0,0,1,79.166-8.8,3.972,3.972,0,0,1,77.83-6.836l-.75-.477a3.566,3.566,0,0,0,1.359-1.844,6.865,6.865,0,0,0,.3-2.156v-1.477h4.531v4.063a.452.452,0,0,0,.129.313.369.369,0,0,0,.27.141h1.625ZM85.447.063l-.477.8a12.817,12.817,0,0,1-3.859-1.953A15.224,15.224,0,0,1,77.463.828L76.931.086a10.932,10.932,0,0,0,3.609-1.727A13.059,13.059,0,0,1,77.97-5.6h-.539V-6.43h6.711V-5.6A9.2,9.2,0,0,1,81.8-1.617,10.01,10.01,0,0,0,85.447.063ZM76.658-.344A.968.968,0,0,1,75.783.711,5.957,5.957,0,0,1,74.5.742L74.15-.07a7.929,7.929,0,0,0,1.266.008.41.41,0,0,0,.422-.453V-5.562q-.656.766-2.078,2.219L73.314-3.8A15.28,15.28,0,0,1,72.228.734L71.533.2A16.58,16.58,0,0,0,72.7-6.469V-12.82h3.961ZM83.3-5.6h-4.43A10.1,10.1,0,0,0,81.2-2.164,8.485,8.485,0,0,0,83.3-5.6ZM75.838-12H73.486v2.281l.4-.4a15.51,15.51,0,0,1,1.953,1.773Zm0,5.273V-7.961l-.453.391a13.76,13.76,0,0,0-1.9-1.789v3a20.535,20.535,0,0,1-.117,2.234A26.052,26.052,0,0,0,75.838-6.727Zm21.03-6.234a15.2,15.2,0,0,1-3.234,5.3l-.719-.516a13.52,13.52,0,0,0,3.117-5.055Zm-3.234,0q-.289.727-.828,1.813l-.531,1.07V.719h-.836V-8.687A11.266,11.266,0,0,1,89.344-6.18l-.4-.828a17.027,17.027,0,0,0,3.883-6.2Zm9.516,4.641-.57.672a11.215,11.215,0,0,1-3.172-4.461H98.18v-.8h1.758A10.384,10.384,0,0,0,103.148-8.32Zm-1.328.992q.023.7.023,1.359a32.637,32.637,0,0,1-.2,3.758,7.452,7.452,0,0,1-.418,2.094,1.64,1.64,0,0,1-.687.629,3.549,3.549,0,0,1-1.547.246A7.248,7.248,0,0,1,98.078.7L97.8-.141q.734.07,1.359.07a2.042,2.042,0,0,0,1.063-.184,1.248,1.248,0,0,0,.414-.59,11.492,11.492,0,0,0,.3-2.258q.141-1.852.1-3.445h-3.2a10.315,10.315,0,0,1-1.191,4.113A9.745,9.745,0,0,1,93.523.781L92.945.094a7.9,7.9,0,0,0,4.031-6.641H93.82v-.781Zm18.8-3.187H112.7a19.562,19.562,0,0,1-1.18,1.8h7.867V-.383a1.023,1.023,0,0,1-.445.965,5.12,5.12,0,0,1-2.1.262q-.633,0-1.242-.047l-.4-.828q.727.062,1.555.063a5.715,5.715,0,0,0,1.559-.113.412.412,0,0,0,.246-.41V-2.578h-7.875A6.724,6.724,0,0,1,108.912.914l-.8-.469q1.984-1.766,1.984-6.2,0-.469-.023-1.187a19.973,19.973,0,0,1-2.891,2.43l-.641-.633a16.423,16.423,0,0,0,5.164-5.367H106.7v-.828h5.492q.461-.828.93-1.891l.859.242q-.461,1.023-.812,1.648h7.453Zm-2.062,4.406V-7.937h-7.617v1.828Zm0,2.75V-5.281H110.9a18.093,18.093,0,0,1-.078,1.922Zm18.748-3.086h-5.8v6.2a18.459,18.459,0,0,0,2.609-.961l.063.883A26.634,26.634,0,0,1,130.864.813L130.481,0a.637.637,0,0,0,.172-.445V-12.812h6.656Zm-.875-3.664v-1.875H131.5v1.875Zm0,2.844V-9.3H131.5v2.031ZM128-8.3a6.774,6.774,0,0,1,1.4,3.766,2.058,2.058,0,0,1-.562,1.547,3.118,3.118,0,0,1-2.242.477l-.336-.844q.4.031.8.031a1.828,1.828,0,0,0,1.187-.277,1.389,1.389,0,0,0,.3-1.043,5.446,5.446,0,0,0-1.445-3.461q.5-1.336,1.266-3.859h-2.516V.781h-.812V-12.781h4.125v.813A35.415,35.415,0,0,1,128-8.3ZM138.544.18,137.966.9a10.085,10.085,0,0,1-4.523-5.969l.781-.336a10.264,10.264,0,0,0,.8,2.016,12.626,12.626,0,0,0,2.453-2.094l.641.539A17.639,17.639,0,0,1,135.427-2.7,7.893,7.893,0,0,0,138.544.18Zm8.913-13.062a13.548,13.548,0,0,1-5.086,7.008l-.641-.641a12.332,12.332,0,0,0,4.891-6.656Zm8.461,6.242-.539.7a12.687,12.687,0,0,1-4.594-6.172h-1.07v-.867h1.727A11.416,11.416,0,0,0,155.917-6.641Zm-1.2,7.172-.75.43a13.729,13.729,0,0,0-.992-2.031A55.048,55.048,0,0,1,143.972.492L143.73-.32A31.477,31.477,0,0,0,148.4-8.547l.813.352A36.358,36.358,0,0,1,144.98-.461a44.421,44.421,0,0,0,7.578-1.359A30.859,30.859,0,0,0,150.6-4.781l.742-.437A30.235,30.235,0,0,1,154.722.531Zm17.967-.914a1.087,1.087,0,0,1-.348.9A3.767,3.767,0,0,1,170.455.8q-.664,0-1.7-.062l-.289-.891q1.367.094,2.148.094a2.9,2.9,0,0,0,1.023-.105.45.45,0,0,0,.2-.441V-12.078h-12.32v-.82h13.172Zm-2.547-8.734H160l.016-.8h10.125Zm-1.1,6.938h-8.016V-7.039h8.016Zm-.867-.828v-3.2h-6.266v3.2ZM3.8,15.55V19H3.152V15.567L.369,9.919H1.1l2.115,4.359q.129.275.275.668H3.51q.035-.082.085-.193T6.029,9.919h.7Zm10.078-.182q0,3.785-3.24,3.785-3.082,0-3.082-3.645V9.919H8.2v5.5q0,3.135,2.561,3.135,2.473,0,2.473-3.047V9.919h.645ZM21.234,19,20.2,16.183H16.271L15.24,19h-.715l3.428-9.076h.621L21.961,19Zm-2.982-8.262h-.029a6.177,6.177,0,0,1-.205.668L16.5,15.591h3.48l-1.529-4.178ZM29.384,19l-5.367-7.33q-.229-.322-.375-.568h-.023l.018.445V19h-.65V9.919h.521l5.332,7.266.387.58h.029q-.035-.439-.035-.791V9.919h.65V19Zm5.572-.586h5.426V19h-6.4V18.79l5.484-8.273H34.423v-.6H40.47V10.1ZM47.443,19V14.653H42.275V19h-.65V9.919h.65v4.148h5.168V9.919h.639V19Zm2.467,0V9.919h4.26v.6H50.56v3.6h3.346v.592H50.56v3.7h3.814V19ZM62.29,19l-5.367-7.33q-.229-.322-.375-.568h-.023l.018.445V19h-.65V9.919h.521l5.332,7.266.387.58h.029q-.035-.439-.035-.791V9.919h.65V19Zm11.4-.3a5.8,5.8,0,0,1-2.3.463,4.234,4.234,0,0,1-2.2-.568,3.847,3.847,0,0,1-1.488-1.6,5.079,5.079,0,0,1-.527-2.341,5.477,5.477,0,0,1,.568-2.511,4.2,4.2,0,0,1,1.6-1.743,4.458,4.458,0,0,1,2.341-.621,5.9,5.9,0,0,1,2,.34v.686a4.873,4.873,0,0,0-2.016-.434,3.805,3.805,0,0,0-2.016.53,3.507,3.507,0,0,0-1.345,1.494,4.929,4.929,0,0,0-.472,2.194,4.659,4.659,0,0,0,.448,2.083,3.276,3.276,0,0,0,1.271,1.4,3.588,3.588,0,0,0,1.878.492,5.011,5.011,0,0,0,2.25-.492Zm3.99.463a3.082,3.082,0,0,1-1.617-.422,2.8,2.8,0,0,1-1.081-1.184A3.892,3.892,0,0,1,74.6,15.8a4.1,4.1,0,0,1,.384-1.825,2.744,2.744,0,0,1,1.1-1.2,3.264,3.264,0,0,1,1.667-.416,2.771,2.771,0,0,1,2.191.911,3.649,3.649,0,0,1,.8,2.5,4,4,0,0,1-.378,1.772,2.771,2.771,0,0,1-1.075,1.2A3.079,3.079,0,0,1,77.677,19.153Zm.047-6.246A2.261,2.261,0,0,0,75.9,13.7a3.168,3.168,0,0,0-.665,2.112,2.99,2.99,0,0,0,.662,2.033,2.261,2.261,0,0,0,1.8.762,2.216,2.216,0,0,0,1.793-.75,3.158,3.158,0,0,0,.633-2.1A3.186,3.186,0,0,0,79.5,13.64,2.2,2.2,0,0,0,77.724,12.907ZM86.261,19V15.228q0-2.32-1.676-2.32a1.952,1.952,0,0,0-1.521.671,2.448,2.448,0,0,0-.6,1.7V19h-.609v-6.48h.609v1.172h.023a2.349,2.349,0,0,1,2.209-1.33,1.93,1.93,0,0,1,1.605.7,3.139,3.139,0,0,1,.557,2V19Zm1.711-1.008a2.526,2.526,0,0,0,.794.445,2.483,2.483,0,0,0,.823.17q1.512,0,1.512-1.225a.955.955,0,0,0-.3-.706,3.947,3.947,0,0,0-1.122-.653,3.764,3.764,0,0,1-1.295-.817,1.536,1.536,0,0,1-.393-1.075,1.568,1.568,0,0,1,.609-1.274,2.319,2.319,0,0,1,1.512-.5,2.888,2.888,0,0,1,1.43.34v.68a2.732,2.732,0,0,0-1.5-.469,1.56,1.56,0,0,0-1.02.325,1.053,1.053,0,0,0-.4.858,1.163,1.163,0,0,0,.12.574,1.243,1.243,0,0,0,.4.4,5.637,5.637,0,0,0,.817.428,6.413,6.413,0,0,1,1.087.577,1.664,1.664,0,0,1,.533.563,1.57,1.57,0,0,1,.155.735,1.592,1.592,0,0,1-.6,1.295,2.431,2.431,0,0,1-1.591.492,2.661,2.661,0,0,1-1.57-.445Zm7.476.92a1.99,1.99,0,0,1-.861.217q-1.447,0-1.447-1.729v-4.33H91.973v-.551h1.166V10.839l.6-.205v1.881h1.711v.551H93.737v4.248a1.713,1.713,0,0,0,.211.967.828.828,0,0,0,.727.3,1.592,1.592,0,0,0,.773-.234Zm3.855-5.76a1.152,1.152,0,0,0-.691-.211,1.471,1.471,0,0,0-1.295.82,4.209,4.209,0,0,0-.492,2.18V19h-.6v-6.48h.6v1.43h.023a2.359,2.359,0,0,1,.7-1.143,1.65,1.65,0,0,1,1.113-.416,1.692,1.692,0,0,1,.645.117ZM104.284,19V17.823h-.023a2.2,2.2,0,0,1-2.086,1.33q-2.3,0-2.3-2.883V12.515h.615v3.609a3.249,3.249,0,0,0,.431,1.887,1.565,1.565,0,0,0,1.356.592,1.8,1.8,0,0,0,1.447-.659,2.593,2.593,0,0,0,.557-1.731v-3.7h.609V19Zm6.387-.287a3.182,3.182,0,0,1-1.717.445,2.931,2.931,0,0,1-1.55-.41,2.713,2.713,0,0,1-1.043-1.16,3.864,3.864,0,0,1-.366-1.717,3.912,3.912,0,0,1,.416-1.816,3.033,3.033,0,0,1,1.16-1.251,3.228,3.228,0,0,1,1.682-.442,3.524,3.524,0,0,1,1.447.3v.674a2.889,2.889,0,0,0-1.529-.428,2.4,2.4,0,0,0-2.224,1.409,3.481,3.481,0,0,0-.319,1.515,3,3,0,0,0,.645,2.013,2.133,2.133,0,0,0,1.711.759,2.786,2.786,0,0,0,1.688-.521Zm3.644.2a1.99,1.99,0,0,1-.861.217q-1.447,0-1.447-1.729v-4.33H110.84v-.551h1.166V10.839l.6-.205v1.881h1.711v.551H112.6v4.248a1.713,1.713,0,0,0,.211.967.828.828,0,0,0,.727.3,1.592,1.592,0,0,0,.773-.234Zm1.078-8.027a.486.486,0,0,1-.343-.141.476.476,0,0,1-.149-.363.445.445,0,0,1,.146-.337.488.488,0,0,1,.346-.138.517.517,0,0,1,.349.129.433.433,0,0,1,.149.346.486.486,0,0,1-.146.357A.479.479,0,0,1,115.393,10.88Zm-.3,8.115v-6.48h.609V19Zm4.787.158a3.082,3.082,0,0,1-1.617-.422,2.8,2.8,0,0,1-1.081-1.184A3.892,3.892,0,0,1,116.8,15.8a4.1,4.1,0,0,1,.384-1.825,2.744,2.744,0,0,1,1.1-1.2,3.264,3.264,0,0,1,1.667-.416,2.771,2.771,0,0,1,2.191.911,3.649,3.649,0,0,1,.8,2.5,4,4,0,0,1-.378,1.772,2.771,2.771,0,0,1-1.075,1.2A3.079,3.079,0,0,1,119.881,19.153Zm.047-6.246a2.261,2.261,0,0,0-1.825.788,3.168,3.168,0,0,0-.665,2.112,2.99,2.99,0,0,0,.662,2.033,2.261,2.261,0,0,0,1.8.762,2.216,2.216,0,0,0,1.793-.75,3.158,3.158,0,0,0,.633-2.1,3.186,3.186,0,0,0-.621-2.115A2.2,2.2,0,0,0,119.928,12.907ZM128.465,19V15.228q0-2.32-1.676-2.32a1.952,1.952,0,0,0-1.521.671,2.448,2.448,0,0,0-.6,1.7V19h-.609v-6.48h.609v1.172h.023a2.349,2.349,0,0,1,2.209-1.33,1.93,1.93,0,0,1,1.605.7,3.139,3.139,0,0,1,.557,2V19Zm11.262-.3a5.8,5.8,0,0,1-2.3.463,4.234,4.234,0,0,1-2.2-.568,3.847,3.847,0,0,1-1.488-1.6,5.079,5.079,0,0,1-.527-2.341,5.477,5.477,0,0,1,.568-2.511,4.2,4.2,0,0,1,1.6-1.743,4.458,4.458,0,0,1,2.341-.621,5.9,5.9,0,0,1,2,.34v.686a4.873,4.873,0,0,0-2.016-.434,3.805,3.805,0,0,0-2.016.53,3.507,3.507,0,0,0-1.345,1.494,4.929,4.929,0,0,0-.472,2.194,4.659,4.659,0,0,0,.448,2.083,3.276,3.276,0,0,0,1.271,1.4,3.588,3.588,0,0,0,1.878.492,5.011,5.011,0,0,0,2.25-.492Zm3.99.463a3.082,3.082,0,0,1-1.617-.422,2.8,2.8,0,0,1-1.081-1.184,3.892,3.892,0,0,1-.378-1.752,4.1,4.1,0,0,1,.384-1.825,2.744,2.744,0,0,1,1.1-1.2,3.264,3.264,0,0,1,1.667-.416,2.771,2.771,0,0,1,2.191.911,3.649,3.649,0,0,1,.8,2.5,4,4,0,0,1-.378,1.772,2.771,2.771,0,0,1-1.075,1.2A3.079,3.079,0,0,1,143.717,19.153Zm.047-6.246a2.261,2.261,0,0,0-1.825.788,3.168,3.168,0,0,0-.665,2.112,2.99,2.99,0,0,0,.662,2.033,2.261,2.261,0,0,0,1.8.762,2.216,2.216,0,0,0,1.793-.75,3.158,3.158,0,0,0,.633-2.1,3.186,3.186,0,0,0-.621-2.115A2.2,2.2,0,0,0,143.763,12.907Zm4.529,6.2a.491.491,0,0,1-.369-.152.538.538,0,0,1,0-.738.5.5,0,0,1,.369-.146.523.523,0,0,1,.372.146.493.493,0,0,1,.155.375.48.48,0,0,1-.161.366A.524.524,0,0,1,148.293,19.106Zm1.734,1.465h-.5l.938-3.012h.662ZM155.81,19V9.919h.65v8.49H160.1V19Zm7.728-.088a1.99,1.99,0,0,1-.861.217q-1.447,0-1.447-1.729v-4.33h-1.166v-.551h1.166V10.839l.6-.205v1.881h1.711v.551h-1.711v4.248a1.713,1.713,0,0,0,.211.967.828.828,0,0,0,.727.3,1.592,1.592,0,0,0,.773-.234Zm5.2.088V17.823h-.023a2.291,2.291,0,0,1-.961.984,2.814,2.814,0,0,1-1.371.346,2.432,2.432,0,0,1-1.963-.891,3.619,3.619,0,0,1-.744-2.4,4.276,4.276,0,0,1,.375-1.825,2.887,2.887,0,0,1,1.058-1.245,2.78,2.78,0,0,1,1.538-.439,2.145,2.145,0,0,1,2.068,1.189h.023V9.4h.609V19Zm0-3.938a2.128,2.128,0,0,0-.586-1.547,2.014,2.014,0,0,0-1.512-.6,2.069,2.069,0,0,0-1.685.8,3.252,3.252,0,0,0-.647,2.115,3.265,3.265,0,0,0,.574,2.033,1.853,1.853,0,0,0,1.553.75,2.2,2.2,0,0,0,1.682-.656,2.371,2.371,0,0,0,.621-1.7Zm2.578,4.049a.491.491,0,0,1-.369-.152.538.538,0,0,1,0-.738.5.5,0,0,1,.369-.146.523.523,0,0,1,.372.146.493.493,0,0,1,.155.375.48.48,0,0,1-.161.366A.524.524,0,0,1,171.319,19.106Z" transform="translate(346.705 39.5)"/><g transform="translate(-188.345 -260.46)"><path class="b" d="M517.8,288.618h12.414c3.414,0,4.811.806,3.1,1.792l-6.208,3.584a6.885,6.885,0,0,1-6.207,0L514.7,290.41C512.992,289.424,514.388,288.618,517.8,288.618Z" transform="translate(-20.32 -0.508)"/><path class="c" d="M520.962,288.186c-.191-.331-.787-.347-1.324-.037L504.662,296.8a2.167,2.167,0,0,1-1.953,0l-14.975-8.647c-.537-.31-1.133-.293-1.324.037s.092.855.63,1.165L502.015,298a2.166,2.166,0,0,1,.976,1.692v17.292c0,.62.313,1.128.694,1.128s.694-.508.694-1.128V299.689a2.166,2.166,0,0,1,.977-1.692l14.976-8.647C520.869,289.041,521.153,288.517,520.962,288.186Z" transform="translate(0)"/><path class="b" d="M510.521,324.231l-6.215-10.747c-1.709-2.956-1.71-4.568,0-3.584l6.21,3.58a6.887,6.887,0,0,1,3.107,5.374c0,1.971,0,5.2,0,7.167S512.229,327.187,510.521,324.231Z" transform="translate(-12.266 -15.953)"/><path class="b" d="M563.872,324.2l6.215-10.747c1.708-2.956,1.709-4.568,0-3.584l-6.209,3.58a6.883,6.883,0,0,0-3.107,5.373c0,1.971,0,5.2,0,7.168S562.162,327.158,563.872,324.2Z" transform="translate(-54.748 -15.932)"/></g></g></svg>