<svg xmlns="http://www.w3.org/2000/svg" width="260.801" height="67.709" viewBox="0 0 260.801 67.709"><defs><style>.a{fill:#606060;}.b{fill:#76ba15;fill-rule:evenodd;}.c{fill:#8e8e8f;}</style></defs><g transform="translate(-29.478 -102.169)"><g transform="translate(-98 -13)"><path class="a" d="M-68.958-23.9l-.921,1.092a45.8,45.8,0,0,0-6.414-4.9l.972-.972A39.674,39.674,0,0,1-68.958-23.9Zm18.969-2.61h-17.6v-1.3h17.6ZM-70.323-15.37l-.989,1.228a43.787,43.787,0,0,0-6.568-4.9l.921-1.058A44.259,44.259,0,0,1-70.323-15.37Zm22.739,8.564a33.919,33.919,0,0,1-.452,4.486A5.843,5.843,0,0,1-48.923.273a2.279,2.279,0,0,1-1.237.768,35.247,35.247,0,0,1-4.555.154A2.04,2.04,0,0,1-56.241.571a2.215,2.215,0,0,1-.606-1.612V-17.161h-4.606Q-61.521-9.962-62.476-7a12.957,12.957,0,0,1-3.011,5.092,19.09,19.09,0,0,1-5.194,3.719L-71.722.665a14.059,14.059,0,0,0,5.553-3.949,11.922,11.922,0,0,0,2.7-5.553,52.066,52.066,0,0,0,.623-8.325h-6.209v-1.279h21.443v1.279h-7.83V-1.126q0,.665.375.836a8.578,8.578,0,0,0,2.337.171,10.127,10.127,0,0,0,2.269-.145,1.211,1.211,0,0,0,.691-.58,9.44,9.44,0,0,0,.5-2.508,32.792,32.792,0,0,0,.256-4.017Zm-21.733-3.326A59.532,59.532,0,0,1-76.823,1.859L-78.017.9a60.733,60.733,0,0,0,7.523-11.975Zm63.554-1.006-.9,1.041a21.837,21.837,0,0,1-5.6-5.732h-6.329a22.229,22.229,0,0,1-5.476,5.493l-.921-.955a22.8,22.8,0,0,0,4.794-4.538H-24.1v-1.3h4.811A19.125,19.125,0,0,0-17.533-20.4h-5.493v-1.262h5.971q.648-1.825.989-3.207h-7.694v-1.262h8q.239-1.024.563-2.832l1.331.29-.529,2.542H-6.36v1.262h-8.308q-.341,1.382-.989,3.207h8.564V-20.4h-9.041a24.344,24.344,0,0,1-1.621,3.275H-5.9v1.3h-4.794A22.457,22.457,0,0,0-5.762-11.139ZM-24-2.337Q-30.071-.358-35.564.972l-.307-1.279q1.911-.461,4.981-1.3V-8.666h-4.4v-1.3h4.4v-5.732q-2.337.426-4.214.6l-.495-1.3a31.09,31.09,0,0,0,4.128-9.672h-4.657V-27.4H-24.9v1.331h-5.186a41.312,41.312,0,0,1-3.8,9.468,51.834,51.834,0,0,0,6.7-1.109,34.222,34.222,0,0,0-1.569-3.361l1.194-.529a41.317,41.317,0,0,1,2.627,6.431l-1.16.6q-.307-1.058-.631-1.928-1.058.256-2.764.563v5.971h3.958v1.3h-3.958V-2Q-26.9-2.746-24.2-3.634ZM-6.82-6.96h-7.642V1.774h-1.4V-6.96h-7.369V-8.239h7.369v-3.054a29.872,29.872,0,0,1-4.026.563l-.375-1.331a51.163,51.163,0,0,0,8.666-1.6l.375,1.228q-1.859.58-3.241.87v3.326H-6.82Zm1.3,7.028-1.006.972a40.417,40.417,0,0,0-5.237-5.2l.938-.87A40.392,40.392,0,0,1-5.524.068Zm-12.231-4.3A28.691,28.691,0,0,1-23.589,1.3l-.9-1.024A31.2,31.2,0,0,0-18.8-5Zm53.78-15.438H33.364v4.9H25.4v3.309h8.836v1.228H25.4v3.5H35.428v1.211H25.4v4.06H24v-4.06H15.162V-6.738H24v-3.5H16.492v-1.228H24v-3.309H17.158V-16H24v-3.668H15.2V-20.9H24v-3.668H17.192v-1.211H24v-2.8h1.4v2.8h7.966V-20.9h2.661ZM31.965-20.9v-3.6H25.4v3.6Zm0,4.9v-3.668H25.4V-16ZM36.3-.136l-.426,1.4q-3.309.085-6.312.085-6.056,0-8.657-.273A17.406,17.406,0,0,1,15.793-.281a13.365,13.365,0,0,1-4.367-3.011A22.846,22.846,0,0,1,6.6,1.74L5.626.8a19.251,19.251,0,0,0,4.862-5.135,22.1,22.1,0,0,1-3.565-7.028l1.177-.7a21.406,21.406,0,0,0,3.156,6.4,20.144,20.144,0,0,0,2.3-8.768H6.7v-1.4a80.691,80.691,0,0,0,6.858-9.706H5.933v-1.331h9.126v1.4A74.193,74.193,0,0,1,8.424-15.9h6.636A22.909,22.909,0,0,1,12.194-4.5,12.821,12.821,0,0,0,16.04-1.621,13.678,13.678,0,0,0,20.134-.281a78.754,78.754,0,0,0,8.316.264Q32.732-.017,36.3-.136ZM60.19-23.763H47.925v-1.279h5.459a12.7,12.7,0,0,0-1.4-3.395l1.4-.563a14.806,14.806,0,0,1,1.569,3.958H60.19ZM78.051-16.5H74.724a2.066,2.066,0,0,1-2.371-2.3v-7.676h-6.6a15.779,15.779,0,0,1-1.16,6.858,14.271,14.271,0,0,1-3.48,4.316L60.02-16.308a12.419,12.419,0,0,0,3.523-4.631,21.175,21.175,0,0,0,.81-6.832h9.4v9.007q0,.989.87.989h3.429ZM58.86-18.731H48.59v-1.3H58.86Zm0,5.169H48.59v-1.279H58.86ZM78.58.529l-.853,1.245Q71.6.085,68.583-2.371a32.777,32.777,0,0,1-8.5,4.179L59.15.7a27.11,27.11,0,0,0,8.376-3.992Q64.489-6.124,62.357-12.3h-1.4v-1.3h14.3v1.3a16.3,16.3,0,0,1-5.561,9.007A23.347,23.347,0,0,0,78.58.529ZM73.82-12.3H63.79a18.694,18.694,0,0,0,4.862,8.137A14.571,14.571,0,0,0,73.82-12.3ZM58.484.972h-1.4V-1.041h-6.7V1.638h-1.4V-9.638h9.5Zm-1.4-3.309v-6h-6.7v6ZM-76.14,13.9v3.04h-.569V13.915l-2.455-4.983h.641l1.866,3.846q.114.243.243.589h.021q.031-.072.075-.171t2.148-4.265h.615Zm9.23-.16q0,3.339-2.859,3.339-2.719,0-2.719-3.215V8.932h.569v4.854q0,2.766,2.259,2.766,2.181,0,2.181-2.688V8.932h.569Zm6.831,3.2-.915-2.481h-3.463l-.91,2.481H-66l3.024-8.007h.548l2.988,8.007ZM-62.71,9.65h-.026a5.449,5.449,0,0,1-.181.589l-1.339,3.7h3.071l-1.349-3.686Zm10.16,7.289-4.735-6.467q-.2-.284-.331-.5h-.021l.016.393v6.575h-.574V8.932h.46l4.7,6.41.341.512h.026q-.031-.388-.031-.7V8.932h.574v8.007Zm5.593-.517h4.787v.517h-5.645v-.181l4.838-7.3h-4.451V8.932h5.335v.16Zm11.355.517v-3.83h-4.559v3.83h-.574V8.932h.574v3.66H-35.6V8.932h.563v8.007Zm2.515,0V8.932h3.758v.527h-3.184v3.179h2.952v.522h-2.952v3.262h3.365v.517Zm11.261,0-4.735-6.467q-.2-.284-.331-.5h-.021l.016.393v6.575h-.574V8.932h.46l4.7,6.41.341.512h.026q-.031-.388-.031-.7V8.932h.574v8.007Zm10.732-.269a5.119,5.119,0,0,1-2.032.408,3.735,3.735,0,0,1-1.938-.5,3.394,3.394,0,0,1-1.313-1.414,4.481,4.481,0,0,1-.465-2.065,4.832,4.832,0,0,1,.5-2.215,3.7,3.7,0,0,1,1.414-1.538A3.933,3.933,0,0,1-12.862,8.8a5.205,5.205,0,0,1,1.768.3v.6a4.3,4.3,0,0,0-1.778-.383,3.357,3.357,0,0,0-1.778.468,3.094,3.094,0,0,0-1.186,1.318,4.348,4.348,0,0,0-.416,1.936,4.11,4.11,0,0,0,.4,1.838,2.89,2.89,0,0,0,1.122,1.238,3.166,3.166,0,0,0,1.657.434,4.421,4.421,0,0,0,1.985-.434Zm3.859.408a2.719,2.719,0,0,1-1.427-.372,2.467,2.467,0,0,1-.954-1.044,3.434,3.434,0,0,1-.333-1.546,3.615,3.615,0,0,1,.339-1.61,2.421,2.421,0,0,1,.972-1.057,2.88,2.88,0,0,1,1.471-.367,2.444,2.444,0,0,1,1.933.8,3.219,3.219,0,0,1,.708,2.2,3.528,3.528,0,0,1-.333,1.564,2.445,2.445,0,0,1-.949,1.055A2.716,2.716,0,0,1-7.235,17.078Zm.041-5.511a2,2,0,0,0-1.61.7,2.8,2.8,0,0,0-.587,1.864,2.638,2.638,0,0,0,.584,1.794,1.994,1.994,0,0,0,1.587.672,1.955,1.955,0,0,0,1.582-.662,2.786,2.786,0,0,0,.558-1.851,2.811,2.811,0,0,0-.548-1.866A1.94,1.94,0,0,0-7.193,11.568Zm7.87,5.371V13.615q0-2.047-1.478-2.047a1.722,1.722,0,0,0-1.341.592,2.16,2.16,0,0,0-.53,1.5v3.283H-3.21V11.222h.538v1.034h.021A2.073,2.073,0,0,1-.7,11.082,1.7,1.7,0,0,1,.713,11.7,2.769,2.769,0,0,1,1.2,13.46v3.479Zm1.848-.889a2.228,2.228,0,0,0,.7.393,2.191,2.191,0,0,0,.726.15q1.334,0,1.334-1.08a.842.842,0,0,0-.266-.623,3.482,3.482,0,0,0-.99-.576,3.321,3.321,0,0,1-1.142-.721,1.355,1.355,0,0,1-.346-.949,1.383,1.383,0,0,1,.538-1.124,2.046,2.046,0,0,1,1.334-.437,2.548,2.548,0,0,1,1.261.3v.6a2.41,2.41,0,0,0-1.323-.414,1.376,1.376,0,0,0-.9.287.929.929,0,0,0-.352.757,1.026,1.026,0,0,0,.106.507,1.1,1.1,0,0,0,.352.352,4.973,4.973,0,0,0,.721.377,5.658,5.658,0,0,1,.959.509,1.468,1.468,0,0,1,.47.5,1.385,1.385,0,0,1,.137.649,1.4,1.4,0,0,1-.53,1.142,2.145,2.145,0,0,1-1.4.434,2.348,2.348,0,0,1-1.385-.393Zm6.935.812a1.755,1.755,0,0,1-.76.191q-1.277,0-1.277-1.525v-3.82H6.395v-.486H7.423V9.743l.527-.181v1.659H9.46v.486H7.951v3.748a1.511,1.511,0,0,0,.186.853.73.73,0,0,0,.641.264,1.4,1.4,0,0,0,.682-.207ZM13.2,11.78a1.016,1.016,0,0,0-.61-.186,1.3,1.3,0,0,0-1.142.724,3.713,3.713,0,0,0-.434,1.923v2.7h-.527V11.222h.527v1.261h.021a2.081,2.081,0,0,1,.615-1.008,1.455,1.455,0,0,1,.982-.367,1.493,1.493,0,0,1,.569.1Zm4.733,5.159V15.905h-.021a1.938,1.938,0,0,1-1.84,1.173q-2.026,0-2.026-2.543V11.222h.543v3.184a2.866,2.866,0,0,0,.38,1.665,1.38,1.38,0,0,0,1.2.522,1.592,1.592,0,0,0,1.277-.582,2.288,2.288,0,0,0,.491-1.528V11.222h.538v5.717Zm5.973-.253a2.808,2.808,0,0,1-1.515.393,2.585,2.585,0,0,1-1.367-.362,2.393,2.393,0,0,1-.92-1.024,3.409,3.409,0,0,1-.323-1.515,3.451,3.451,0,0,1,.367-1.6,2.676,2.676,0,0,1,1.024-1.1,2.847,2.847,0,0,1,1.484-.39,3.109,3.109,0,0,1,1.277.269v.594a2.548,2.548,0,0,0-1.349-.377,2.114,2.114,0,0,0-1.962,1.243,3.071,3.071,0,0,0-.282,1.336,2.65,2.65,0,0,0,.569,1.776,1.882,1.882,0,0,0,1.509.669,2.458,2.458,0,0,0,1.489-.46Zm3.554.176a1.755,1.755,0,0,1-.76.191q-1.277,0-1.277-1.525v-3.82H24.395v-.486h1.029V9.743l.527-.181v1.659H27.46v.486H25.951v3.748a1.511,1.511,0,0,0,.186.853.73.73,0,0,0,.641.264,1.4,1.4,0,0,0,.682-.207Zm1.29-7.082a.429.429,0,0,1-.3-.124.42.42,0,0,1-.132-.32.392.392,0,0,1,.129-.3.431.431,0,0,1,.3-.121.456.456,0,0,1,.308.114.382.382,0,0,1,.132.3.429.429,0,0,1-.129.315A.423.423,0,0,1,28.75,9.779Zm-.264,7.16V11.222h.538v5.717Zm4.562.14a2.719,2.719,0,0,1-1.427-.372,2.467,2.467,0,0,1-.954-1.044,3.434,3.434,0,0,1-.333-1.546,3.615,3.615,0,0,1,.339-1.61,2.421,2.421,0,0,1,.972-1.057,2.88,2.88,0,0,1,1.471-.367,2.444,2.444,0,0,1,1.933.8,3.219,3.219,0,0,1,.708,2.2,3.528,3.528,0,0,1-.333,1.564,2.445,2.445,0,0,1-.949,1.055A2.716,2.716,0,0,1,33.048,17.078Zm.041-5.511a2,2,0,0,0-1.61.7,2.8,2.8,0,0,0-.587,1.864,2.638,2.638,0,0,0,.584,1.794,1.994,1.994,0,0,0,1.587.672,1.955,1.955,0,0,0,1.582-.662A2.786,2.786,0,0,0,35.2,14.08a2.811,2.811,0,0,0-.548-1.866A1.94,1.94,0,0,0,33.09,11.568Zm7.87,5.371V13.615q0-2.047-1.478-2.047a1.722,1.722,0,0,0-1.341.592,2.16,2.16,0,0,0-.53,1.5v3.283h-.538V11.222h.538v1.034h.021a2.073,2.073,0,0,1,1.949-1.173A1.7,1.7,0,0,1,41,11.7a2.769,2.769,0,0,1,.491,1.76v3.479Zm10.613-.269a5.119,5.119,0,0,1-2.032.408,3.735,3.735,0,0,1-1.938-.5,3.394,3.394,0,0,1-1.313-1.414,4.481,4.481,0,0,1-.465-2.065,4.832,4.832,0,0,1,.5-2.215A3.7,3.7,0,0,1,47.74,9.345,3.933,3.933,0,0,1,49.8,8.8a5.205,5.205,0,0,1,1.768.3v.6a4.3,4.3,0,0,0-1.778-.383,3.357,3.357,0,0,0-1.778.468,3.094,3.094,0,0,0-1.186,1.318,4.348,4.348,0,0,0-.416,1.936,4.11,4.11,0,0,0,.4,1.838,2.89,2.89,0,0,0,1.122,1.238,3.166,3.166,0,0,0,1.657.434,4.421,4.421,0,0,0,1.985-.434Zm3.859.408a2.719,2.719,0,0,1-1.427-.372,2.467,2.467,0,0,1-.954-1.044,3.434,3.434,0,0,1-.333-1.546,3.615,3.615,0,0,1,.339-1.61,2.421,2.421,0,0,1,.972-1.057,2.88,2.88,0,0,1,1.471-.367,2.444,2.444,0,0,1,1.933.8,3.219,3.219,0,0,1,.708,2.2,3.528,3.528,0,0,1-.333,1.564,2.445,2.445,0,0,1-.949,1.055A2.716,2.716,0,0,1,55.432,17.078Zm.041-5.511a2,2,0,0,0-1.61.7,2.8,2.8,0,0,0-.587,1.864,2.638,2.638,0,0,0,.584,1.794,1.994,1.994,0,0,0,1.587.672,1.955,1.955,0,0,0,1.582-.662,2.786,2.786,0,0,0,.558-1.851,2.811,2.811,0,0,0-.548-1.866A1.94,1.94,0,0,0,55.473,11.568Zm4.335,5.469a.433.433,0,0,1-.326-.134.475.475,0,0,1,0-.651.442.442,0,0,1,.326-.129.462.462,0,0,1,.328.129.435.435,0,0,1,.137.331.424.424,0,0,1-.142.323A.462.462,0,0,1,59.808,17.037Zm1.869,1.292h-.445l.827-2.657h.584Zm5.78-1.391V8.932h.574v7.49h3.21v.517Zm7.157-.078a1.755,1.755,0,0,1-.76.191q-1.277,0-1.277-1.525v-3.82H71.548v-.486h1.029V9.743l.527-.181v1.659h1.509v.486H73.1v3.748a1.511,1.511,0,0,0,.186.853.73.73,0,0,0,.641.264,1.4,1.4,0,0,0,.682-.207Zm4.929.078V15.905h-.021a2.022,2.022,0,0,1-.848.868,2.483,2.483,0,0,1-1.21.3,2.146,2.146,0,0,1-1.732-.786,3.193,3.193,0,0,1-.657-2.114,3.773,3.773,0,0,1,.331-1.61,2.547,2.547,0,0,1,.933-1.1,2.453,2.453,0,0,1,1.357-.388,1.892,1.892,0,0,1,1.825,1.049h.021V8.477h.538v8.462Zm0-3.474a1.878,1.878,0,0,0-.517-1.365,1.777,1.777,0,0,0-1.334-.532,1.825,1.825,0,0,0-1.486.7,2.869,2.869,0,0,0-.571,1.866,2.881,2.881,0,0,0,.507,1.794,1.635,1.635,0,0,0,1.37.662,1.945,1.945,0,0,0,1.484-.579,2.092,2.092,0,0,0,.548-1.5Zm2.613,3.572a.433.433,0,0,1-.326-.134.475.475,0,0,1,0-.651.442.442,0,0,1,.326-.129.462.462,0,0,1,.328.129.435.435,0,0,1,.137.331.424.424,0,0,1-.142.323A.462.462,0,0,1,82.155,17.037Z" transform="translate(305.658 154.638)"/></g><g transform="translate(29.478 102.169)"><path class="b" d="M522.567,288.618h27.848c7.659,0,10.792,1.808,6.964,4.019l-13.926,8.04a15.444,15.444,0,0,1-13.924,0l-13.924-8.04C511.775,290.426,514.908,288.618,522.567,288.618Z" transform="translate(-497.593 -288.208)"/><path class="c" d="M564,288.509c-.429-.742-1.766-.779-2.97-.084l-33.6,19.4a4.862,4.862,0,0,1-4.382,0l-33.594-19.4c-1.205-.7-2.541-.658-2.97.084s.207,1.918,1.412,2.612l33.6,19.4a4.86,4.86,0,0,1,2.19,3.795v38.792c0,1.391.7,2.531,1.558,2.531s1.558-1.14,1.558-2.531V314.314a4.858,4.858,0,0,1,2.191-3.795l33.595-19.4C563.787,290.426,564.423,289.25,564,288.509Z" transform="translate(-486.35 -287.927)"/><path class="b" d="M519.843,342.408c-3.835-6.63-10.108-17.478-13.943-24.109s-3.836-10.248-.005-8.04l13.931,8.03a15.449,15.449,0,0,1,6.971,12.055c0,4.422.007,11.657.011,16.078S523.675,349.038,519.843,342.408Z" transform="translate(-493.137 -296.754)"/><path class="b" d="M567.733,342.378l13.941-24.108c3.833-6.63,3.834-10.248,0-8.04l-13.929,8.03a15.442,15.442,0,0,0-6.971,12.054c0,4.422-.008,11.657-.01,16.079S563.9,349.009,567.733,342.378Z" transform="translate(-516.643 -296.742)"/></g></g></svg>